<svg id="Capa_1" data-name="Capa 1" xmlns="http://www.w3.org/2000/svg" xmlns:xlink="http://www.w3.org/1999/xlink" viewBox="0 0 509.7 191.54"><defs><style>.cls-1,.cls-11,.cls-12,.cls-14,.cls-17,.cls-27,.cls-29,.cls-7{fill:none;}.cls-2{clip-path:url(#clip-path);}.cls-3{fill:#d53d32;}.cls-4{fill:#8a2c2d;}.cls-5{fill:#cc5f48;}.cls-6{fill:#d26046;}.cls-7{stroke:#af5d57;}.cls-11,.cls-12,.cls-14,.cls-17,.cls-27,.cls-29,.cls-7{stroke-linecap:round;stroke-linejoin:round;stroke-width:0;}.cls-8{fill:#a12f2b;}.cls-9{fill:#db4737;}.cls-10{fill:#992b1c;}.cls-11{stroke:#a12f2b;}.cls-12{stroke:#992b1c;}.cls-13{fill:#ea5d35;}.cls-14{stroke:#d26046;}.cls-15{fill:#ba352f;}.cls-16{fill:#a62f28;}.cls-17{stroke:#a62f28;}.cls-18{fill:#c23930;}.cls-19{fill:#be362e;}.cls-20{fill:#ac2f28;}.cls-21{fill:#972e2c;}.cls-22{fill:#e14533;}.cls-23{fill:#cc3f33;}.cls-24{fill:#fad4bd;}.cls-25{fill:#e95134;}.cls-26{fill:#f9c4a2;}.cls-27{stroke:#f9c4a2;}.cls-28{fill:#cb3f35;}.cls-29{stroke:#d53d32;}</style><clipPath id="clip-path"><rect class="cls-1" width="513.27" height="189.6"/></clipPath></defs><g class="cls-2"><path class="cls-1" d="M289,72c-3.06-.73-6.1-1.7-9.16-2.44l-2.37-1,2.37,1-2.37-1,2.37,1C282.92,70.34,286,71.31,289,72Z"/><path class="cls-1" d="M395,85.62l2.49,5.77L395,85.62Z"/><path class="cls-1" d="M273,68.67a9.24,9.24,0,0,1-1,0A9.24,9.24,0,0,0,273,68.67Z"/><path class="cls-1" d="M413.16,64.58l-1.55-.2,1.54.2,6-1Z"/><path class="cls-1" d="M347.3,85.75c1.74.18,3.48.55,5.22.78l13.39-.9-13.39.9C350.78,86.3,349,85.93,347.3,85.75Z"/><path class="cls-1" d="M317.47,58.54l2.24.8-2.24-.8c.33-2.31-.56-3.47-2.56-3.85C316.91,55.07,317.8,56.23,317.47,58.54Z"/><path class="cls-1" d="M413.89,59.08l-2.28,5.3a5.16,5.16,0,0,0-1,.14,5.16,5.16,0,0,1,1-.14Z"/><path class="cls-1" d="M226.6,195.54h0q0-5,.07-10l0-8.05c0,2.68,0,5.36,0,8.05Q226.64,190.56,226.6,195.54Z"/><path class="cls-1" d="M250.5,95q.23-.21.42-.42L273,97l-22-2.41Q250.73,94.83,250.5,95Z"/><path class="cls-1" d="M202.43,68.59l3-.73-3,.73Z"/><path class="cls-1" d="M391.24,77.5l-42.22,0,42.22,0Z"/><path class="cls-1" d="M319.55,179.19c5.71-.8,11.47-3.75,13.69-7.58a6.05,6.05,0,0,0,1.15-.29,6.05,6.05,0,0,1-1.15.29c.51-2.32.94-4.66,1.36-7-.42,2.34-.85,4.68-1.36,7C331,175.44,325.26,178.39,319.55,179.19Z"/><path class="cls-1" d="M275.08,68.55c-.69,0-1.42.09-2.12.12.7,0,1.43-.11,2.12-.12Z"/><path class="cls-1" d="M436.12,135.59c.39-.67.79-1.33,1.19-2,0-.67,0-1.34,0-2,0,.66,0,1.33,0,2C436.91,134.26,436.51,134.92,436.12,135.59Z"/><path class="cls-1" d="M427.69,116.68l24.16-3.12,1.59-.15-1.59.15-24.16,3.12-.06,5Z"/><path class="cls-1" d="M460.26,91.63l-.12.1h0Z"/><path class="cls-1" d="M404.58,107.55c8.12-1.59,16.23-3.26,24.38-4.79-8.15,1.53-16.26,3.2-24.38,4.79l-37.7-.47,37.7.47Z"/><path class="cls-1" d="M501.54,193.9c-.81-5.45-1.65-10.9-2.45-16.36h0C499.89,183,500.73,188.45,501.54,193.9Z"/><path class="cls-1" d="M491.86,153.61a3.49,3.49,0,0,1,.91.24c0,.58.05,1.15.08,1.72,0-.57-.06-1.14-.08-1.72a4,4,0,0,0-.91-.25Z"/><path class="cls-1" d="M478.64,133.4a1.71,1.71,0,0,0,0-.45A1.71,1.71,0,0,1,478.64,133.4Z"/><path class="cls-1" d="M33.2,118.8l.1.08h0Z"/><path class="cls-1" d="M427.58,131.38a6.57,6.57,0,0,0,1.88-1.79A6.57,6.57,0,0,1,427.58,131.38Z"/><path class="cls-1" d="M429.46,129.59a21.37,21.37,0,0,0,1.79-3h0A21.37,21.37,0,0,1,429.46,129.59Z"/><path class="cls-1" d="M392.52,129.6l1.2,1h0Z"/><path class="cls-1" d="M424.24,132a6.85,6.85,0,0,0,1.84-.08A6.85,6.85,0,0,1,424.24,132Z"/><path class="cls-1" d="M335.87,157.58c-.46,2.33-.86,4.68-1.27,7C335,162.26,335.41,159.91,335.87,157.58Z"/><path class="cls-1" d="M239.18,78.32a10.66,10.66,0,0,1,1.25-.67A10.66,10.66,0,0,0,239.18,78.32Z"/><path class="cls-1" d="M21.84,166.46a56.22,56.22,0,0,1,1.87-6.16A56.22,56.22,0,0,0,21.84,166.46Z"/><path class="cls-1" d="M23.71,160.3q1-2.82,2.4-5.74Q24.74,157.48,23.71,160.3Z"/><path class="cls-1" d="M303,83.3c-2.8-.44-5.6-.87-8.4-1.32C297.41,82.43,300.21,82.86,303,83.3Z"/><path class="cls-1" d="M208.9,66.94c-.61.18-1.24.35-1.87.52C207.66,67.29,208.29,67.12,208.9,66.94Z"/><path class="cls-1" d="M294.61,82q-5.72-.92-11.41-1.91Q288.9,81.07,294.61,82Z"/><path class="cls-1" d="M367.66,91c-.58-1.78-1.13-3.57-1.75-5.33h0C366.53,87.39,367.08,89.18,367.66,91Z"/><path class="cls-1" d="M422.73,190.37c-1.09.5-2.17,1-3.2,1.57C420.56,191.39,421.64,190.87,422.73,190.37Z"/><path class="cls-1" d="M369.27,46.62l-.84-1.17c1-.55,2-1.1,3-1.66-1,.56-2,1.11-3,1.66Z"/><polygon class="cls-1" points="395.73 46.98 395.81 46.95 395.73 46.97 395.73 46.98"/><path class="cls-1" d="M267.79,27.57h0a10,10,0,0,0,3.9,2.76A10,10,0,0,1,267.79,27.57Z"/><path class="cls-1" d="M294.18,14.12c-14.16-1.94-28.49-1.88-42.87-1.19L248,13.1l3.36-.17C265.69,12.24,280,12.18,294.18,14.12Z"/><path class="cls-1" d="M462.56,94.69h0l-.08-.1Z"/><path class="cls-1" d="M223.32,14.2a38,38,0,0,0-6.39,2.39l-9.38,3.64,9.38-3.64A38,38,0,0,1,223.32,14.2Z"/><path class="cls-1" d="M33,118.61l.06,0Z"/><path class="cls-1" d="M125,37.44l1-.84-1,.84-3.72,1.13-5.53,1.81,5.53-1.81Z"/><path class="cls-1" d="M227,13.36l1.31-.21Z"/><path class="cls-1" d="M274.14,30.78a7.23,7.23,0,0,1-2.11-.35A7.23,7.23,0,0,0,274.14,30.78Z"/><path class="cls-1" d="M234,19.28l2.85-.45,1.76-.13-1.76.13Z"/><path class="cls-1" d="M297.44,14.61q3.27.53,6.52,1.2Q300.71,15.13,297.44,14.61Z"/><path class="cls-1" d="M449.49,82.59l8.43,8.94h0l-8.43-8.94L435,69.51a30.64,30.64,0,0,0-3.14-3.92A30.64,30.64,0,0,1,435,69.51Z"/><path class="cls-1" d="M425.61,97l27.53-4.43,1.08-.24-1.08.24Z"/><path class="cls-1" d="M399.65,49.67h0Z"/><path class="cls-1" d="M219.4,16.66l1.26,4.2L208.1,22.24l12.56-1.38,3.62-.5-3.62.5Z"/><path class="cls-1" d="M224.28,20.36l6.08-.72,3.59-.36-3.59.36Z"/><path class="cls-3" d="M18.59,232.57c-.34-9.26-1.41-18.52-1-27.76.39-10.11,2.07-20.2,3.19-30.3-.78,2.19-1.9,4.34-2.28,6.58-1.09,6.56-2.63,13.16-2.65,19.74,0,5,.1,9.92.28,14.88.06,1.68.12,3.36.19,5,.27,6.58.61,13.16.86,19.74l1.23-.17h0C18.46,237.75,18.69,235.15,18.59,232.57Z"/><path class="cls-3" d="M28.31,162.25c4.55-4.15,3-7.95.87-13.68-1.14,2.05-2.16,4-3.07,6s-1.71,3.86-2.4,5.74a56.22,56.22,0,0,0-1.87,6.16,49.76,49.76,0,0,0-1,5.12h0l4.87-1C26.5,167.74,26.24,164.13,28.31,162.25Z"/><path class="cls-4" d="M483.34,297.65h0c1-2.34,2-4.67,3-7s2-4.67,2.84-7,1.67-4.66,2.48-7c2.45-7,4.81-14,7.22-21A28,28,0,0,1,498,251c0-.21,0-.42,0-.64.55-4.56,1.4-9.11,2.39-13.63.25-1.16,1.49-2.16,2.28-3.24,0-1.89.06-3.79.08-5.69l-3.66-50.26h0l0,.05c-.42-1.68-.83-3.36-1.25-5-2-3-4.07-5.91-5.08-9.08a11.84,11.84,0,0,1,.06-7.9c0-.57-.06-1.14-.08-1.72a3.49,3.49,0,0,0-.91-.24h0l-4.9-3.81a14.54,14.54,0,0,1-3.32-3.33,16.15,16.15,0,0,1-2.72-8.87l-2.28-4.19a1.71,1.71,0,0,0,0-.45,1.61,1.61,0,0,0-.1-.36l-7.26-5.1-7.24-.75c-1.62,7.1-3.41,14.17-4.77,21.3-.47,2.44-1.24,5.56,4,5.78a4,4,0,0,1,2.87,2.6,64.68,64.68,0,0,1,0,12c-.09.87-2.53,1.58-3.89,2.37,11.81,11.09,12.51,18.79,2.69,30.52-2.86-1.33-5.15-7.53-3.91-10.56,2.84-6.95,2.84-6.95-6.2-10.42-1,3.17-2.07,6.17-3,9.2-.42,1.44-.14,3.12-.93,4.36-2.43,3.84-1.45,7.37.67,11,2.49,4.23.82,13-3.29,15.8-3.29,2.23-6.15.47-7.18-2-2.53-6.15-5.61-12.1-2.32-19.14,2-4.24,1.05-9.39,1.41-14.14.07-1-.44-2.43.14-2.81,5.28-3.45,4-8.27,4.22-12.79.16-3.32-.31-6.78.7-9.92,1.47-4.61-.66-7.37-5.69-6.52a26.3,26.3,0,0,0-12.14,6.07c-1.35,1.18,0,5.25,1.32,7.53,2,3.4,1.77,5.64-2.52,7.29a53.86,53.86,0,0,0-7.49,3.14c-3.11,1.78-2.72,3.57.93,4.52a107.89,107.89,0,0,1,12.71,3.7,75.09,75.09,0,0,1-9.66,4.84c-1.09.5-2.17,1-3.2,1.57-4.14,2.19-7.61,4.93-8.84,9.66.24,1.54,0,2.58-.78,3.16-1,.74-2.75.72-5.35,0-2.51,8.73-4.85,17.1-7.36,25.44-.37,1.22-1.49,2.28-2.27,3.41v4l4.83,6c.42,1.32.83,2.65,1.24,4l2.38,3v2c.07,1.42.08,2.86.14,4.28a40.49,40.49,0,0,0,.33,4.27,8.54,8.54,0,0,0,2,4.46c1.16,1.29,3.1,2.1,4.7,3.12l-5.42,3.95c-6-6-13.61-4.33-20.77-3.54-4,.45-6.36.28-6.35-3.54-3.27.33-5.5-.36-7.18-3.13-1.55-2.54-4.35-4.57-6.35-6.58l-8.53,5.4-1.34-1.16v-3.74a7.81,7.81,0,0,0-1.79-.67c-3.59-.32-7.17-.71-10.77-.79a7.49,7.49,0,0,0-4.17,1.15c-5.81,4.26-5.75,4.32-9-.47-5,0-9.59.11-14.16,0-4.11-.13-5.89,1.21-5.82,4.69,0,1.67-.87,3.35-1.34,5-2.05-.8-4-1.93-6.15-2.34-7.51-1.41-13.91-4-19.22-8.9-1.15-1.06-5.77,0-8.51.73-3.62,1-5.32,1.11-6.09-2.72-.67-3.37-2-7.2-8.3-6.66-1,.09-3.13-2.09-3.4-3.4-.54-2.63-.16-5.39-.16-8.1l-2.19-.39c-2.38,3.25-4.51,6.64-7.23,9.68a37.13,37.13,0,0,1-7.64,6.51c-2.71,1.74-4.13,2.93-2.41,6.1,1.58,2.89,1.37,6.41,2.27,9.59,1.34,4.74,7.48,3.93,11.2,5.89.9.46,4.47-2.28,6.58-3.76a67.92,67.92,0,0,0,5.29-4.54c1.39,1.62,2.71,3.28,4.17,4.85,3.48,3.73,8,3.11,12.62,2,8.36-2.05,12.14-.41,16.15,8.25-4.34-.81-8.06-.91-11-2.19-4.45-1.93-8.48-2.32-14.13-.07,2.61,1.87,4.58,3.33,6.6,4.73,2.68,1.86,3.54,3.46-.15,5.37-2.59,1.35-4.73,3.27-7.08,4.93l.66,1.77c4.07,0,8.14-.08,12.2,0,7.44.16,8.9,2.08,6.32,7.76-1.68,3.71-3.27,7.16-9.54,5.31-1.11-.33-2.63.26-4,.43,1.71,7.15-.83,8.93-9,7.18-1.67-.35-5.63,1.27-5.58,1.53.58,2.53.89,6,3,7.21,4.37,2.51,13.62.16,17.14-3.43,2.21-3.17,5.15-3.83,9.09-2,4.38,2,11.11,2.12,9.49,8.7-.27,1.11.25,3.24,1,3.46,1.9.56,4.48.88,6.21.24,8.09-3,7.55-2.76,13.59,2.66,4.19,3.77,5.74,9.52,14.36,11.15,6-.92,14.16,5.39,22.28-.13,3.93,1.58,10,2.42,11.47,5,1.85,3.19-.07,7.88-.36,11.92l-2.4,2-6.05,4h0l-2.43,2c-5,5-9.42,10.49-15.22,14.7-4.15,3-10.1,4.36-15.38,6.2-4.63,1.6-9.59,2.59-14.13,4.34a18.71,18.71,0,0,0-7.3,4.75c-2.33,2.74-4.79,4-8.89,4.12-5.07.16-10.09,1.46-15.17,1.63-7.71.26-15.46,0-23.19-.16a.49.49,0,0,1-.32-.17,13.68,13.68,0,0,1-.95-1.37l-22.11,2.25-6.87.7h0c-5.73,0-11.47.22-17.17-.07-2.79-.14-5.51-1.24-8.26-1.9l-12.15-2c-6.41-.05-12.86,0-18.65-2.06a22.27,22.27,0,0,1-5.55-2.93c-.4,0-.8,0-1.21,0l-6-2-2.44-1-9.66-1h0v2l3.6,1.06,0,0h0l1.26.93,25.59,10c7.7,1.64,15.31,3.75,23.13,4.83,14.94,2.07,30,3.53,45,5.31a23.82,23.82,0,0,1,4.15,1.25l17.35.05,10.53-.6,2.69-.14c4.45-.85,8.88-1.78,13.36-2.53,8-1.33,15.93-2.62,23.93-3.8a62.11,62.11,0,0,1,6.57-.26l.42.07.39-.12,4-.92,2.17-.3c2.65-1.55,5.06-4,8-4.52,13.16-2.39,25.12-6.93,36.68-12.45,2.14-1,4.84-1.23,7.29-1.81h0l9.77-5-.05,0,8.57-5-.1.05c3.4-2.66,6.59-5.53,10.24-7.92,4.48-2.93,9.34-5.45,14-8.15l-.09,0,1.23-1h0l.07-.06-.07.06,1.59-1-1.59,1h0l1.59-1a1.31,1.31,0,0,0,.89-.26l7.3-6.73-.06.05,10.59-9.13,1.48-1.94,3.56-3.05,0,0,1.3-1.88c.69-2.93,1.53-5.75,6.06-6l2.46-3-.07.06q4.21-4.56,8.42-9.11v0l1.32-2-.05.07q4.26-6.51,8.53-13l4.84-8-.06,0Zm-48.4,57,10.59-9.13Z"/><path class="cls-5" d="M166.92,20c1.61-.5,3.24-1,4.87-1.44,13.33-3.73,27.13-6.48,40.93-8.9a225.42,225.42,0,0,1,30.1-3.1c12-.47,24-.41,35.93.28a213,213,0,0,1,31.4,3.86c13.27,2.81,26.22,6.69,39.16,10.46a155.66,155.66,0,0,1,19.76,7.14c9.23,4.11,18.57,8.26,27,13.36,12.15,7.34,23.57,15.51,35.18,23.45a6.17,6.17,0,0,1,.57.44A30.64,30.64,0,0,1,435,69.51l14.52,13.08,8.43,8.94h0l2.22.2.12-.1.2-.16a32.16,32.16,0,0,0-3.08-4.75A246.16,246.16,0,0,0,367.1,24.89q-76.5-30.7-160-17c-26.2,4.3-51.18,11.63-74.05,23.32l0,0,.47.51C144.7,27.88,155.63,23.51,166.92,20Z"/><path class="cls-6" d="M78.31,350.07c-.5-.59-1-1.16-1.56-1.72-.71-.74-1.42-1.46-2.15-2.18-2.18-2.15-4.45-4.24-6.66-6.38l-2.32-2.15,0,0,0,0-1-1a2.72,2.72,0,0,1-.21-.79L62,333.65l0,0,0,0-1.12-1,0-.06h0l-13.27-17a1.3,1.3,0,0,1-.16-.69l-1.13-1.26L45,311.67l-1.19-2,0-.05c-.4-.68-.8-1.36-1.19-2l-6.92-10.12c-.21,1.11-.41,2.22-.62,3.33l-1.09.15-1-3.32h0c-1.25-2.29-2.62-4.56-4-6.82a67.88,67.88,0,0,1-5.84-11.57c-4.25-12-8.41-24.06-10.7-36.35C9.68,228.2,7,213.41,9.74,198.4c1.8-9.8,1.43-20,4.32-29.51,4.18-13.74,10.45-27,15.79-40.54,1.24-3.13,2.31-6.31,3.45-9.47l-.1-.08-.18-.14-.06,0c-.49.72-1.06,1.41-1.48,2.16q-53.37,95.84,6,189.23a174.21,174.21,0,0,0,40.4,44.55l4.84.87C81.25,353.64,79.84,351.82,78.31,350.07Z"/><path class="cls-5" d="M506,190.65c-.18-1.14-.37-2.28-.56-3.43l-.21-1.52c-3.11-25.8-12.81-49.93-27.67-72.65-4.23-6.48-9.69-12.42-14.58-18.6l-.23.15-.14.09h0c3.55,5.31,7.47,10.48,10.71,15.91.46.78.91,1.56,1.34,2.34,6.75,12.31,12.95,24.83,19.18,37.33.46.92-.65,2.37-1,3.58,0,.58.05,1.15.08,1.72l5,17,0,0c.42,1.68.83,3.36,1.25,5l0-.05h0c.8,5.46,1.64,10.91,2.45,16.36s1.6,10.91,2.32,16.38c.45,3.43.1,6.94.13,10.42l3-2.89.09-13.41Q506.5,197.52,506,190.65Z"/><path class="cls-6" d="M33.2,118.8l.1.08c1.11-.89,2.39-1.68,3.43-2.61a9.6,9.6,0,0,0,.94-1c1.72-2.16,2.74-4.7,4.47-6.85,7.38-9.18,14.25-18.73,22.74-27.16,3.11-3.09,6.36-5.83,8.1-9.61l-.61-.47C56.39,85.39,43,101.05,33,118.61l.06,0Z"/><path class="cls-6" d="M73,71.67a25.8,25.8,0,0,0,4.17-1.37,3.15,3.15,0,0,0,.47-.3c2.16-1.67,3.59-4,5.82-5.56,10.13-7.08,20.44-14,30.68-20.95,2.39-1.63,4.75-3.28,7.13-4.92l-5.53,1.81c-16.46,8.34-30.46,19-43.35,30.82l.61.47Z"/><path class="cls-5" d="M125,37.44l1-.84,7.57-4.83-.47-.51,0,0-17.35,9.16,5.53-1.81Z"/><path class="cls-7" d="M507.05,204.4q-.56-6.89-1.1-13.75"/><path class="cls-5" d="M460.14,91.73l2.34,2.86.08.1h0l.14-.09.23-.15-2.47-3-.2.16Z"/><path class="cls-7" d="M505.39,187.22l-.21-1.52"/><path class="cls-8" d="M394.93,212.59l-9.66,0-4.87.94-2.41,0a30.71,30.71,0,0,0,.58,3.78,5.83,5.83,0,0,0,.22.71c.64,1.78,2,3.26,5.08,3.91.11,0-.38,3.43-.78,3.45-3.88.28-7.81.17-11.73.17l-.33-1.56,2.81-2.7c-.69-.28-1.25-.74-1.66-.65-6.89,1.37-14.4-.67-21,2.74-1.28.66-3.73-.23-5.87-1.54l-5.7,2.4c-4-4.33-4-4.33-10-1.09l-2.34-1.56c-3.4,1.37-6.41,3.59-8.25,3.06-2.5-.72-4.09-3.55-6.29-5.69l-1.39,1.43-2.4-3.87c-7.9,2.2-9.45,4.27-8.62,10.75.25,1.95-.29,4-.47,6l-1.61.14c-.46-.89-1.33-1.8-1.29-2.69.12-3.16-.4-5.84-4.24-7.59-1.05-.47-1.75-2.19-1.79-3.36-.15-5.27,0-5.27-7.14-7.46,6.26-4.81,13.75-4.39,20.36-5.77-1-2.95-1.92-6-3-8.9a46.28,46.28,0,0,0-2.18-5.21c-1.79-3.58-5.35-3.7-8.57-.92a4.63,4.63,0,0,0-1.43,1.59c-2.73,7.86-9.69,7.81-17.43,6.48a21.73,21.73,0,0,0-3.61,0c-4.7,0-7.28,1.28-3.66,7l-11-2.67-9.73-2.38h-6.76l.69,5c9.14,8,9.85,18,8,27.92-.57,3-6.3,6.62-10.49,7.63-6.7,1.61-14.11,1.13-21.18,1.84a18.41,18.41,0,0,0-6.27,2.24c-3.54,1.84-6.64,4.43-10.43,5.71-2,.68-5.47-.18-7.59-1.27-7-3.59-14.61-4.59-22.52-3.88-2.15.2-5.36.19-6,2.14a3.17,3.17,0,0,0,0,1.86,7.15,7.15,0,0,0,.28.81l6.05,6a13.54,13.54,0,0,1,3.59,2.61c.37.33.75.66,1.14,1a10.08,10.08,0,0,0,1.22.83,6.59,6.59,0,0,0,4.94.6l12.1,1,2.44,1c3.06.29,4.17,1.23,4.47,2.43,0,.1,0,.19.05.28a3.9,3.9,0,0,1,0,.59c0,.2,0,.4,0,.61s0,.2,0,.31c-.05.31-.11.62-.18.94l-.12.62a4.48,4.48,0,0,0,0,2.27c-3.18,3.77-15.23-.78-11.42,8.95h0l3.95,2.47.9.56,3.61,2,6,1q2.42-2.49,4.82-5c2.38-6.07,8.3-7.31,15-7.34a63.93,63.93,0,0,1,10,.36c5.61.86,7.49,3.83,6.46,6.91l-12,3.41c.68,4.16,7.73,7.1-.76,11.88h12c.3.51.61,1,.92,1.52L226,305c-3.19-3.64-4.77-8.43-11-4.13,2.23,4.4,3.75,8.7-1.41,13l-3.3-3.3c-1-1-2-2-3-3-2.26-.2-3.78.21-4.73,1.09a3.61,3.61,0,0,0-.33.35,3.37,3.37,0,0,0-.51.83,6.51,6.51,0,0,0-.5,2.72l3.52,2.6c-5.78,3.08-5.82,3.12,0,5.95.49.24,1,.46,1.51.68,1.54.63,3.15,1.17,4.71,1.78l5.3-.31c0,.56.05,1.13.08,1.69l-5.37-.38,0,0a9.88,9.88,0,0,1-.91,3.45,4.48,4.48,0,0,1-1.56,1.76,4,4,0,0,1-.85.44,6,6,0,0,1-1.42.3,6.94,6.94,0,0,1-.8,0,11.15,11.15,0,0,1-1.82-.19,20.74,20.74,0,0,1-2.1-.49c-1.69-.49-3.85.13-5.8.25,1.07,1.15,1.87,2.63,3.24,3.4,4,2.21,8.41,3.89,12.2,6.27,1.92,1.22,2.86,3.51,4.24,5.31-1.91.56-3.88,1-5.69,1.71-1.14.44-2.76,1.17-3,2-.45,1.87-1.3,3.77-1.73,5.66a10.06,10.06,0,0,0-.24,1.62,6.22,6.22,0,0,0,.29,2.41,7.12,7.12,0,0,0,2.23,3.14h0c2.21.16,4.71-.36,6.74.22a4.48,4.48,0,0,1,1.15.49,4.18,4.18,0,0,1,1,.84,5.32,5.32,0,0,1,.82,1.28l6,1.16c1.51-.26,3.47-2.36,4.77-1.79.58.25,1,1.06,1.24,2.83l.12,1.89a10.58,10.58,0,0,0,5.87,1.76h.06a17.9,17.9,0,0,0,1.79-.1,34.12,34.12,0,0,0,4-.76c1.3-.3,2.61-.63,3.92-.85,10.32-1,20.5,2.92,23,8.93l7.22.13c.93,0,2-.25,2.89-.18a2,2,0,0,1,.77.2c12.46,6.46,26.06,5.71,39.73,4.39a7.89,7.89,0,0,0,4.32-1.57c4.11-4,9.19-3,14.71-2.54-11.82,7.13-19.61,9-33.91,9.09-2.83,0-5.74,1.33-8.46,2.32-4.79,1.75-9.46,3.72-14.88,5.87l3.54,4.5c-9.4,3.37-18.93,1.14-28.1,1.86a13.68,13.68,0,0,0,.95,1.37.49.49,0,0,0,.32.17c7.73.15,15.48.42,23.19.16,5.08-.17,10.1-1.47,15.17-1.63,4.1-.13,6.56-1.38,8.89-4.12a18.71,18.71,0,0,1,7.3-4.75c4.54-1.75,9.5-2.74,14.13-4.34,5.28-1.84,11.23-3.2,15.38-6.2,5.8-4.21,10.21-9.74,15.22-14.7l2.43-2-2.43,2,2.43-2h0l6.05-4-6.05,4,6.05-4,2.4-2-2.6-5.17c-6.22-.42-12.09-.09-17.41-1.35-6.7-1.6-10.45,2-15.16,4.17-2.23,1-4.43,2.1-6.64,3.16l-.84-6.76c0-.32-.07-.65-1-.32-1.71-1.4-3.36-2.85-5.14-4.18a31,31,0,0,0-6-3.87c-.38-.17-2.31,2.19-3.6,3.32-.85.74-1.85,1.36-3.54,2.59-2-6.44-3.7-12.06-5.53-18l-4.16.16c-1.44-12.92-4.87-16.13-15.55-14.72-3.52,3.59-12.77,5.94-17.14,3.43-2.09-1.2-2.4-4.68-3-7.21-.05-.26,3.91-1.88,5.58-1.53,8.19,1.75,10.73,0,9-7.18,1.34-.17,2.86-.76,4-.43,6.27,1.85,7.86-1.6,9.54-5.31,2.58-5.68,1.12-7.6-6.32-7.76-4.06-.09-8.13,0-12.2,0l-.66-1.77c2.35-1.66,4.49-3.58,7.08-4.93,3.69-1.91,2.83-3.51.15-5.37-2-1.4-4-2.86-6.6-4.73,5.65-2.25,9.68-1.86,14.13.07,3,1.28,6.69,1.38,11,2.19-4-8.66-7.79-10.3-16.15-8.25-4.61,1.13-9.14,1.75-12.62-2-1.46-1.57-2.78-3.23-4.17-4.85a67.92,67.92,0,0,1-5.29,4.54c-2.11,1.48-5.68,4.22-6.58,3.76-3.72-2-9.86-1.15-11.2-5.89-.9-3.18-.69-6.7-2.27-9.59-1.72-3.17-.3-4.36,2.41-6.1a37.13,37.13,0,0,0,7.64-6.51c2.72-3,4.85-6.43,7.23-9.68l2.19.39c0,2.71-.38,5.47.16,8.1.27,1.31,2.37,3.49,3.4,3.4,6.29-.54,7.63,3.29,8.3,6.66.77,3.83,2.47,3.73,6.09,2.72,2.74-.76,7.36-1.79,8.51-.73,5.31,4.87,11.71,7.49,19.22,8.9,2.15.41,4.1,1.54,6.15,2.34.47-1.68,1.38-3.36,1.34-5-.07-3.48,1.71-4.82,5.82-4.69,4.57.15,9.16,0,14.16,0,3.24,4.79,3.18,4.73,9,.47a7.49,7.49,0,0,1,4.17-1.15c3.6.08,7.18.47,10.77.79a7.81,7.81,0,0,1,1.79.67v3.74l1.34,1.16,8.53-5.4c2,2,4.8,4,6.35,6.58,1.68,2.77,3.91,3.46,7.18,3.13,3.92-1.19,8.41-.85,11.41-4.39,1.58-1.86,5.51-2.25,8-3.72,2.25-1.33,4-3.24,6-4.89v-2l-2.38-3c-.41-1.33-.82-2.66-1.24-4-4.49-.42-7-1.95-4.83-6v-4c0-2.68.07-5.35.07-8Q395,219.08,394.93,212.59Z"/><path class="cls-8" d="M443.07,129.35c-1.93.69-3.82,1.49-5.72,2.24,0,.66,0,1.33,0,2-.4.67-.8,1.33-1.19,2-.71.57-1.36,1.58-2.12,1.64-11.84.84-15.42,8.3-18.85,15.88-1,2.18-1.51,4.56-2.86,6.56-2,3-3.75,5.89-9.49,5.27s-7.45,2.27-5.25,6.65c3.91,7.77,3.42,8.94-5.35,12.83-8.28,3.67-8.62,5.29-5.5,12.34a3.71,3.71,0,0,1,.27,1.79c-.13,1.91-1.27,4.13-1.69,6.13l8.44.91,2.67,2,2.78,2.1c6.34-5.86-1.74-9.26-3.16-13.83,3.83-2.34,6.87-3.54,9.56,1,1.07,1.82,3.37,3.15,5.12,4.7,1.23-4.73,4.7-7.47,8.84-9.66,1-.55,2.11-1.07,3.2-1.57a75.09,75.09,0,0,0,9.66-4.84,107.89,107.89,0,0,0-12.71-3.7c-3.65-1-4-2.74-.93-4.52a53.86,53.86,0,0,1,7.49-3.14c4.29-1.65,4.48-3.89,2.52-7.29-1.32-2.28-2.67-6.35-1.32-7.53a26.3,26.3,0,0,1,12.14-6.07c5-.85,7.16,1.91,5.69,6.52-1,3.14-.54,6.6-.7,9.92-.22,4.52,1.06,9.34-4.22,12.79-.58.38-.07,1.85-.14,2.81-.36,4.75.56,9.9-1.41,14.14-3.29,7-.21,13,2.32,19.14,1,2.5,3.89,4.26,7.18,2,4.11-2.78,5.78-11.57,3.29-15.8-2.12-3.6-3.1-7.13-.67-11,.79-1.24.51-2.92.93-4.36.9-3,1.94-6,3-9.2,9,3.47,9,3.47,6.2,10.42-1.24,3,1.05,9.23,3.91,10.56,9.82-11.73,9.12-19.43-2.69-30.52,1.36-.79,3.8-1.5,3.89-2.37a64.68,64.68,0,0,0,0-12,4,4,0,0,0-2.87-2.6c-5.26-.22-4.49-3.34-4-5.78,1.36-7.13,3.15-14.2,4.77-21.3l-7-2.3C452.37,126.07,447.71,127.68,443.07,129.35Z"/><path class="cls-9" d="M460.14,91.73h0l-2.22-.2h0l-3.7.82-1.08.24L425.61,97l-28.25,4.55-9.43.54c-3.14.18-6.28.35-9.42.48s-6,0-9,0c-13-.34-26.07-.65-39.1-1a13.47,13.47,0,0,1-3.31-.94l-13.29-2-9.27.34c-.22.54-.44,1.07-.65,1.61l10.53,5.3c-.22,1.75-1.39,4.2-.42,5.7.65,1,4.35.93,6.67.86.94,0,2.62-1.33,2.61-2-.1-3.67,2.51-3.86,5.91-3.81q18.84.27,37.69.51l37.7.47c8.12-1.59,16.23-3.26,24.38-4.79,2.71-.51,5.43-1,8.15-1.48,1.82-.32,4,.91,6.06,1.42a35.85,35.85,0,0,1-2.4,5.72,3.9,3.9,0,0,1-3.17,1c-11.41-3.2-21.92,2.31-33,2.21-5.3.64-10.58,1.43-15.89,1.88-10.12.88-20.25,1.56-30.38,2.32l0,1.72h26.92l42.44-.91,24.16-3.12,1.59-.15,6.89-.65a2.72,2.72,0,0,1,1.17,0l7,1.17c0,.53.06,1.07.08,1.6L458,119.67c-.33,1.59-.67,3.18-1,4.77l7,2.3,7.24.75,7.26,5.1a1.61,1.61,0,0,1,.1.36,1.71,1.71,0,0,1,0,.45l2.28,4.19a16.15,16.15,0,0,0,2.72,8.87,14.54,14.54,0,0,0,3.32,3.33l4.9,3.81h0a4,4,0,0,1,.91.25c.37-1.21,1.48-2.66,1-3.58-6.23-12.5-12.43-25-19.18-37.33-.43-.78-.88-1.56-1.34-2.34-3.24-5.43-7.16-10.6-10.71-15.91h0l-.08-.1Z"/><path class="cls-10" d="M502.75,227.8h0l1-.22c.08-1.69.15-3.39.22-5.08l.06-1.8c0-3.48.32-7-.13-10.42-.72-5.47-1.51-10.92-2.32-16.38s-1.65-10.9-2.45-16.36Z"/><path class="cls-10" d="M492.79,163.47c1,3.17,3.08,6.12,5.08,9.08h0l0,0-5-17A11.84,11.84,0,0,0,492.79,163.47Z"/><path class="cls-11" d="M471.24,127.49l7.26,5.1"/><path class="cls-12" d="M487,149.79l4.9,3.81"/><path class="cls-11" d="M478.64,133.4l2.28,4.19"/><path class="cls-12" d="M497.87,172.55h0"/><path class="cls-12" d="M497.87,172.55c.42,1.68.83,3.36,1.25,5"/><path class="cls-13" d="M33.24,293.36c-3.07-8-6.52-15.94-9.25-24-.39-1.15-.77-2.31-1.12-3.47q-1-3.12-1.72-6.29c-1.53-6.32-2.62-12.73-4-19.08-.25-6.58-.59-13.16-.86-19.74-.07-1.69-.13-3.37-.19-5-.18-5-.29-9.92-.28-14.88,0-6.58,1.56-13.18,2.65-19.74.38-2.24,1.5-4.39,2.28-6.58,0-1,.06-1.95.1-2.93h0a49.76,49.76,0,0,1,1-5.12,56.22,56.22,0,0,1,1.87-6.16q1-2.82,2.4-5.74c.91-1.95,1.93-3.94,3.07-6,2.08,5.73,3.68,9.53-.87,13.68-2.07,1.88-1.81,5.49-2.6,8.32,9.59,5.28,1.6,10.32-.38,15.44l1.8-.19c.55,3.17,2.45,6.7,1.39,9.45-3.31,8.71-1,16.66,2.8,24.63,1.15,2.4,2.39,4.78,3.66,7.31l5.75-10.76c3.56,2.68,5.91,5.9,8.08,5.82,5.67-.22,11.29-1.81,16.85-3.06.24-.06.4-.31.54-.65.06-.14.11-.3.16-.46.14-.5.27-1.06.44-1.49h0l-1.23-3.09c2.17-4.25,1.87-8-2.32-11.55-1.79-1.51-2.4-4.31,1.52-4.22,8.19.19,7.15-5.89,10.52-9.57-7.65,4.2-13.42-.55-20.25-2.88-.12,6.45-.51,12.82-8.55,13.65-2.67.28-6.17-4.92-10.31-8.49l16.55-3.2a76.34,76.34,0,0,0-4.82-6.62c-3.27-3.57-1.08-5.71,3-5.67,7.12.06,10.38-2.18,10.54-8.07,0-.74,2.88-1.41,4.39-2.17a16,16,0,0,0,4-2.24c5-4.93,7-5.22,12.51-2.19,3.18-.7,5.61-1.92,7.5-1.5,3.92.87,3.24,3.51,2.16,6.1-1.38,3.34-4.73,7.62.13,9.81,2.15,1,7.33-2,10.68-3.78,1.42-.75,1.71-3,2.45-4.59.59-1.25.95-3.57,1.66-3.64,5-.48,10.53-1.56,15.11-.38s8.43,4.74,12.59,7.25l3.57.05c5.31-1.27,10.84-2.11,15.84-4,3-1.11,5-3.25,1.55-6.7-6.57-6.55-6.67-10.23-2.31-15.85,3.47-1.1,5.09,5.19,9.18,1.48,3.29-9.12,4.26-18.93,12.47-26.65l-5.84-3.32,5.67-2.73c-2.26-4.62-3.79-9.5-6.88-13.56-3-3.9-7.5-7-11.52-10.29-.68-.56-2.3-.45-3.47-.43a51.89,51.89,0,0,1-23.22-5c-2.78-1.3-7.93.39-11.8,1.3-3.3.79-5.51.92-6.26-2.34-4.29.47-5.24-1.48-4.84-4.48.87-6.5,6-10.62,11.74-14.36,4.88-3.17,9.42-6.87,14.8-9.3,4.42-2,9.8-2.65,14.87-3.43.9-.14,2.31,2,3.5,3.12,4.17,3.85,7.65,3.22,10.7-1.3,1.23-1.83,4.09-2.93,6.29-4.26.94-.57,2.44-.65,3.13-1.33,7.7-7.57,20.4-4.38,28.78-10.41l1.29,1.69-11.84,9.19c13.14-1.8,22.23-7.1,30.13-14.2l1.18,1a57.46,57.46,0,0,0-4.84,5.06c-.87,1.14-1.05,2.63-1.55,4,1.46.34,2.95,1,4.37.95,6.34-.43,12.54-.34,18.44-3.72s12.49-.81,18.7,5.12A12.79,12.79,0,0,0,262,48.35c10.43,2.34,20.88,4.79,31.51,6.29,6.16.87,12.69.13,19.05-.09a10.59,10.59,0,0,1,2.35.14c2,.38,2.89,1.54,2.56,3.85l2.24.8,3.9,1.41c5.88,1,11.75,2,17.65,2.83q7.37,1.08,14.78,1.89c7.3.8,14.62,1.49,21.92,2.22l32.68-3.17a5.16,5.16,0,0,1,1-.14l2.28-5.3.42-1,5.14,5.18,2.21,1.2h0q1.79,1.53,3.55,3.08l7,4.15L435,69.51a30.64,30.64,0,0,0-3.14-3.92,6.17,6.17,0,0,0-.57-.44c-11.61-7.94-23-16.11-35.18-23.45-8.44-5.1-17.78-9.25-27-13.36a155.66,155.66,0,0,0-19.76-7.14c-12.94-3.77-25.89-7.65-39.16-10.46a213,213,0,0,0-31.4-3.86c-11.93-.69-24-.75-35.93-.28a225.42,225.42,0,0,0-30.1,3.1c-13.8,2.42-27.6,5.17-40.93,8.9-1.63.46-3.26.94-4.87,1.44-11.29,3.47-22.22,7.84-33.34,11.73L126,36.6l-1,.84-3.72,1.13c-2.38,1.64-4.74,3.29-7.13,4.92-10.24,7-20.55,13.87-30.68,20.95C81.21,66,79.78,68.33,77.62,70a3.15,3.15,0,0,1-.47.3A25.8,25.8,0,0,1,73,71.67h0c-1.74,3.78-5,6.52-8.1,9.61-8.49,8.43-15.36,18-22.74,27.16-1.73,2.15-2.75,4.69-4.47,6.85a9.6,9.6,0,0,1-.94,1c-1,.93-2.32,1.72-3.43,2.61h0c-1.14,3.16-2.21,6.34-3.45,9.47-5.34,13.5-11.61,26.8-15.79,40.54-2.89,9.53-2.52,19.71-4.32,29.51-2.76,15-.06,29.8,2.68,44.45,2.29,12.29,6.45,24.39,10.7,36.35A67.88,67.88,0,0,0,29,290.77c1.35,2.26,2.72,4.53,4,6.82h0C33,296.18,33.13,294.77,33.24,293.36ZM216.93,16.59a38,38,0,0,1,6.39-2.39c1.22-.33,2.45-.61,3.68-.84l1.31-.21a66.26,66.26,0,0,1,17.51.06h0L248,13.1l3.36-.17c14.38-.69,28.71-.75,42.87,1.19,1.09.15,2.18.32,3.26.49q3.27.53,6.52,1.2c.52.11.92.6,1.38.91l46.94,11c2.68.44,5.62.49,8.1,1.25a10.63,10.63,0,0,1,1,.38c10.43,4.4,20.67,9.09,30.85,13.87,1.54.72,2.38,2.47,3.54,3.74l-.08,0,3.95,2.73,0,0h0c4.36.67,6.09,1.43,5.72,3a7.67,7.67,0,0,1-1.77,2.81c-8.82,1.57-15.37-2.54-22.06-6.14-.54-.29-1.06-.61-1.57-.93-1.52-1-2.93-2.1-4.42-3.12l-1.39-.67a2.16,2.16,0,0,1-1-.32l-1.67-.55c-1,.56-2,1.11-3,1.66l.84,1.17.16.21.5.22v.45l2,2.22.94.9.18.22c.54.4,1.16.76,1.67,1.18a3.94,3.94,0,0,1,.47.44,24.62,24.62,0,0,1,2,3.52l-8-2.19-4.57-1.22-10.81-5.76c-.33.33-.74.55-.8.82-1.4,7.28-1.39,7.26-10.81,6.21-3.3-.37-6.62-.62-9.94-.93-1-1.18-2.59-2.26-2.91-3.56-1-4-1.51-8.08-2.39-13.18-3.35,2.83-5.73,5-8.28,7-4,3.1-6.31,2.92-8-1.26-3.06-7.64-12.57-9.84-18.16-15.33-1.06-1-4.87-.45-7.32-.15a10.56,10.56,0,0,0-4.16,2,17.2,17.2,0,0,1-3.5,1.81,10,10,0,0,1-1.7.47,8,8,0,0,1-.84.11,5.81,5.81,0,0,1-.83,0,7.23,7.23,0,0,1-2.11-.35l-.34-.1a10,10,0,0,1-3.9-2.76l-3.6-1-2.51-.26-5.91,0-2.52.21-5.48.69-5.89.73,5.77-8-3.33-1.13-5.76-.08-1.76.13-2.85.45-3.59.36-6.08.72-3.62.5L208.1,22.24c-.18-.67-.36-1.34-.55-2Z"/><path class="cls-9" d="M420.84,76.78c-4.12.39-8.34.39-12.49.65l-17.11.07-42.22,0C330.87,76,312.69,74.74,294.58,73A37.64,37.64,0,0,1,289,72c-3.06-.73-6.1-1.7-9.16-2.44l-2.37-1h-2.41c-.69,0-1.42.09-2.12.12a9.24,9.24,0,0,1-1,0,4.46,4.46,0,0,1-1-.15c-4.77-1.25-9.45-2.71-14.74-4.27.89,8.89,8,12.14,15.67,13.68q5.65,1.14,11.34,2.13T294.61,82c2.8.45,5.6.88,8.4,1.32,4.83.76,9.66,1.51,14.47,2.3,9.36,0,18.72-.06,28.07,0a17,17,0,0,1,1.75.11c1.74.18,3.48.55,5.22.78l13.39-.9h29l2.49,5.77,49.6-5.94,2.44-2.86L435,69.51l-2.73,2.21c-2.43,1.57-4.62,4-7.33,4.51C423.57,76.48,422.21,76.65,420.84,76.78Z"/><path class="cls-13" d="M447.05,85.45l6.09,7.14,1.08-.24,3.7-.82h0l-8.43-8.94Z"/><path class="cls-14" d="M126,36.6l-1,.84"/><path class="cls-15" d="M431.25,126.59a21.37,21.37,0,0,1-1.79,3,6.57,6.57,0,0,1-1.88,1.79,4.42,4.42,0,0,1-1.5.55,6.85,6.85,0,0,1-1.84.08c-2.05-.16-4.79-1-8.74-2.44h-6l-15.75,1h0c0,1,0,2-.05,3.07a67.06,67.06,0,0,0,.14,9.19c.62,5.42-3.24,7-8.51,7.67-1.37.17-2.81,0-4.22.07-8.08.26-12.93,3-13.91,9.5-1.48,9.88-10.33,13.45-19.3,17.23a6.14,6.14,0,0,1-2.37.19,10.12,10.12,0,0,1-1.79-.42c-.07-.51-.08-1-.19-1.43-.61-2.58-1.25-5.16-1.88-7.75-2.41,1.14-4.82,2.29-7.25,3.41a6.05,6.05,0,0,1-1.15.29c-2.22,3.83-8,6.78-13.69,7.58a16.07,16.07,0,0,1-9.42-1.15c-1.81-.93-1.66-4.6-2.18-7-.44-2-.53-4.14-.77-6.21-3.55,1.1-7.68,1.6-10.51,3.45-4.3,2.82-7.62,6.63-11.52,9.89-.95.8-2.52,1.08-5,.79,1.28-3,3.06-6,3.69-9.1.52-2.54-.33-5.27-.57-7.92-3.13.77-7.22.77-9.18,2.45a72.68,72.68,0,0,0-10.92,12.41c-3.39,4.63-7.41,8-14.23,8.92-4.88.66-7.88,0-11.1-3.64-2.16-2.46-7.39-3.07-11.25-4.51l0,8.05q0,5-.07,10l17,6,9.73,2.38,11,2.67c-3.62-5.76-1-7,3.66-7a21.73,21.73,0,0,1,3.61,0c7.74,1.33,14.7,1.38,17.43-6.48a4.63,4.63,0,0,1,1.43-1.59c3.22-2.78,6.78-2.66,8.57.92a46.28,46.28,0,0,1,2.18,5.21c1.06,2.94,1.94,6,3,8.89,2,1.92,3.35,3,4.85,3.13a4.19,4.19,0,0,0,1.35-.09c1.66-.38,3.74-1.69,7.07-4l1.25.94,2.37.08,2.51,1.87,2.34,0,2.46-5.95a15.43,15.43,0,0,1,1.35-2.31,11.08,11.08,0,0,1,1.57-1.8,9.52,9.52,0,0,1,.86-.71,8.51,8.51,0,0,1,1.86-1c2.92-1.16,6.39-.56,10,1.89l15.78,5.94,4.85-.9,2.49-1,2.36,0c3.13-1.1,6.17-1.78,8.78-.71a7.72,7.72,0,0,1,3.28,2.67l3.7.07c.42-2,1.56-4.22,1.69-6.13a3.71,3.71,0,0,0-.27-1.79c-3.12-7-2.78-8.67,5.5-12.34,8.77-3.89,9.26-5.06,5.35-12.83-2.2-4.38-.38-7.26,5.25-6.65s7.5-2.32,9.49-5.27c1.35-2,1.87-4.38,2.86-6.56,3.43-7.58,7-15,18.85-15.88.76-.06,1.41-1.07,2.12-1.64.39-.67.79-1.33,1.19-2,0-.67,0-1.34,0-2l-2.46-5Z"/><path class="cls-16" d="M451.85,113.56l-24.16,3.12-.06,5c0,.34,0,.68,0,1l17.24-1.5,6.35-.55c-4.49,5.93-10.87,5.06-16.32,6h0l2.46,5c1.9-.75,3.79-1.55,5.72-2.24,4.64-1.67,9.3-3.28,13.95-4.91.33-1.59.67-3.18,1-4.77l-1.81-.07C449.45,119.37,448.87,118.56,451.85,113.56Z"/><path class="cls-17" d="M436.12,135.59c.39-.67.79-1.33,1.19-2"/><path class="cls-18" d="M309,95.54c-6.28-.49-12.57-1-18.76-2-2.07-.32-3.82-2-5.74-3.1-4.16-2.31-7.93-5.72-13.61-1.81-1,.68-4.5-.29-6.17-1.27-4.69-2.75-9-6-13.53-8.88a11.55,11.55,0,0,0-8.52-1.57,11,11,0,0,0-2.28.72,10.66,10.66,0,0,0-1.25.67,9,9,0,0,0-4.08,5.28c9.71,2.66,19.44,5.28,29.12,8,3.2.9,6.29,2,9.43,3.06-.23.79-.46,1.58-.7,2.37l-22-2.41q-.19.21-.42.42a11.79,11.79,0,0,0-2.69,3,9.93,9.93,0,0,0-1.09,5.45c.07.49,3.47,1,5.28.85s3.73-1.36,5.67-1.56c4-.41,7.48-1,8.18,4.43.39,3,4.51,7.09,8.08,8.19,5.09,1.57,11.22.81,16.9,1.11,1.66.08,3.94-.12,4.84.66,4.26,3.71,9.51,4.59,15.29,4.51a4.36,4.36,0,0,1,1.7.4c.31.13.47.49,1.53,1.69L303.92,125c1.37,3.85,9.53,8.5,13.67,7.17,2.36-.76,4.08-3,5.93-4.68,2.06-1.88,3.54-4.81,6-5.53,1.51-.44,5.31,2,6.55,3.89,3.7,5.53,7.1,10.66,3.79,18.08a61.85,61.85,0,0,0-4,13.61c-.46,2.33-.86,4.68-1.27,7s-.85,4.68-1.36,7a6.05,6.05,0,0,0,1.15-.29c2.43-1.12,4.84-2.27,7.25-3.41.63,2.59,1.27,5.17,1.88,7.75.11.45.12.92.19,1.43a10.12,10.12,0,0,0,1.79.42,6.14,6.14,0,0,0,2.37-.19c9-3.78,17.82-7.35,19.3-17.23,1-6.54,5.83-9.24,13.91-9.5,1.41,0,2.85.1,4.22-.07,5.27-.67,9.13-2.25,8.51-7.67a67.06,67.06,0,0,1-.14-9.19c0-1,.05-2,.05-3.07h0l-1.2-1L372.22,126l.36-2.34h15.07l-2.4-6H358.33l0-1.72c10.13-.76,20.26-1.44,30.38-2.32,5.31-.45,10.59-1.24,15.89-1.88,0-1.37,0-2.74-.05-4.12h0l-37.7-.47q-18.84-.24-37.69-.51c-3.4,0-6,.14-5.91,3.81,0,.69-1.67,2-2.61,2-2.32.07-6,.16-6.67-.86-1-1.5.2-4,.42-5.7l-10.53-5.3c.21-.54.43-1.07.65-1.61l9.27-.34C314,95.64,311.61,95.73,309,95.54Z"/><path class="cls-3" d="M321.93,90.68c-1.79-1.43-3-3.37-4.45-5.08-4.81-.79-9.64-1.54-14.47-2.3-2.8-.44-5.6-.87-8.4-1.32q-5.72-.92-11.41-1.91t-11.34-2.13c-7.65-1.54-14.78-4.79-15.67-13.68,5.29,1.56,10,3,14.74,4.27a4.46,4.46,0,0,0,1,.15,9.24,9.24,0,0,0,1,0c.7,0,1.43-.11,2.12-.12-5.27-2.65-10.52-5.34-15.83-7.94-3.59-1.76-7.28-3.38-10.93-5-8.77,1.39-17.55,2.75-26.3,4.21-1.53.25-3.71.57-4.32,1.46-2.14,3.11-5.31,4.64-8.8,5.71-.61.18-1.24.35-1.87.52l-1.59.4-3,.73c.88.66,1.73,1.36,2.58,2.06,2.55,2.12,5,4.32,8.1,5.62,7,3,14.63,4.94,22,7.33a9,9,0,0,1,4.08-5.28,10.66,10.66,0,0,1,1.25-.67,11,11,0,0,1,2.28-.72,11.55,11.55,0,0,1,8.52,1.57c4.56,2.91,8.84,6.13,13.53,8.88,1.67,1,5.18,2,6.17,1.27,5.68-3.91,9.45-.5,13.61,1.81,1.92,1.06,3.67,2.78,5.74,3.1,6.19,1,12.48,1.49,18.76,2,2.57.19,5,.1,4.77,3l13.29,2C327.83,96.42,325.42,93.44,321.93,90.68Z"/><path class="cls-16" d="M447.05,85.45l-49.6,5.94-17.29,1.26c-.13-.58-.27-1.16-.4-1.74a58.4,58.4,0,0,0,6.73-1.59c2.92-1,5.66-2.45,8.47-3.7h-29c.62,1.76,1.17,3.55,1.75,5.33.36,1.08.73,2.15,1.15,3.21s.77,1.86,1.23,2.76c1.93,3.82,6.4,2.64,10.1,2.49,4.2-.18,8.4-.83,12.56-.66,1.61.07,3.11,1.82,4.66,2.81L425.61,97l27.53-4.43Z"/><path class="cls-18" d="M352.52,86.53c-1.74-.23-3.48-.6-5.22-.78a17,17,0,0,0-1.75-.11c-9.35-.1-18.71,0-28.07,0,1.47,1.71,2.66,3.65,4.45,5.08,3.49,2.76,5.9,5.74,5.17,9.92a13.47,13.47,0,0,0,3.31.94c13,.4,26.07.71,39.1,1-2.13-1.32-4.05-3.06-6.43-3.86C355.44,96.17,352.77,93.34,352.52,86.53Z"/><path class="cls-19" d="M414.83,124.17c4.27,0,8.53-1,12.79-1.5,0-.34,0-.68,0-1l.06-5-42.44.91,2.4,6C396.71,123.83,405.78,124.24,414.83,124.17Z"/><path class="cls-15" d="M392.7,98.76c-4.16-.17-8.36.48-12.56.66-3.7.15-8.17,1.33-10.1-2.49-.46-.9-.86-1.82-1.23-2.76S368,92,367.66,91c-.58-1.78-1.13-3.57-1.75-5.33l-13.39.9c.25,6.81,2.92,9.64,10.56,12.2,2.38.8,4.3,2.54,6.43,3.86,3,0,6,.13,9,0s6.28-.3,9.42-.48l9.43-.54C395.81,100.58,394.31,98.83,392.7,98.76Z"/><path class="cls-20" d="M404.58,107.55c0,1.38,0,2.75.05,4.12,11.05.1,21.56-5.41,33-2.21a3.9,3.9,0,0,0,3.17-1,35.85,35.85,0,0,0,2.4-5.72c-2-.51-4.24-1.74-6.06-1.42-2.72.47-5.44,1-8.15,1.48-8.15,1.53-16.26,3.2-24.38,4.79Z"/><path class="cls-21" d="M456.21,119.6l1.81.07,10.53-4.15c0-.53-.05-1.07-.08-1.6l-7-1.17h-1.17l-6.89.65-1.59.15C448.87,118.56,449.45,119.37,456.21,119.6Z"/><path class="cls-16" d="M461.5,112.75a2.72,2.72,0,0,0-1.17,0Z"/><path class="cls-22" d="M157.78,179.84c2.54,3.34,4.84,3.7,7.71.48a54.18,54.18,0,0,0,4.15-6c1.56,2.39,3.36,4.59,4.45,7s.91,4.61-3.1,5.28c-8.32,1.39-9.54,3.06-7.85,10.18.15.64.16,1.29.37,2.93-3.5-.58-6.54-.9-9.45-1.61-3.42-.82-5.21-.08-4.86,2.95.45,3.83-1.62,5.29-6.14,5.71-5,.47-8.54,5.26-7,9.25.35.89,3.1,2.13,3.64,1.84a68.6,68.6,0,0,0,9.15-6.09c1.55-1.21,2.33-3.09,3.82-4.38,4.06-3.54,8.27-3.35,11.92.42,2.25,2.34,4.5,4.68,6.52,7.16,2.68,3.3,5.48,4.67,9.78,1.62,2.24-1.59,4.52-3.13,7.65-.2,6.33,5.89,12.12,5.89,20,.64,1.1-.73,2.07-1.59,3.23-2.24,4.16-2.32,3.4-4.79-.15-6.67-4-2.13-8.55-3.6-12.65-5.63-2.83-1.39-6-2.87-7.75-5-1.42-1.75-2-5-1-6.75s4.71-2.92,7.23-2.92c9.28,0,18.57.6,28.53,1,.14-.77.37-2,.6-3.17,0-2.69,0-5.37,0-8.05,2.38-7.19,1.06-13.28-5.17-19.31-2.79-2.7-2.07-7.95-2.62-12.07-.05-.38,2.61-1.63,3.28-1.34a14.42,14.42,0,0,1,4.07,3.21c2.37,2.32,4.32,5,7,6.95,1.11.8,4.33.73,5.54-.05,1-.63.67-3,.41-4.47-.81-4.71-2.84-9.42-2.61-14.06.33-6.56-3.47-10.71-9.06-14.29-4.2-2.68-4.57-7.09-.73-10.26,2.63-2.17,5-4.54,7.52-6.82l-1.55-1.17a22.86,22.86,0,0,0-2.64,2.05c-6.33,6.59-12.28,6.27-16.87-1a18.38,18.38,0,0,1-1.47-3.75c-2.87-8.17-5.08-8.74-12.62-2.76-4.82-2.21-10.32-4-14.67-7-3.31-2.25-5.3-5.9-7.58-9.08a2.66,2.66,0,0,1,.42-3,5.39,5.39,0,0,1,3.87-.33,32.2,32.2,0,0,0,6.46,1.45c3.86.33,6.22-1.08,10-4.88-.33-2.09-.06-3.9,1.24-5.21a7.34,7.34,0,0,1,3.59-1.8l3-.73,1.59-.4c.63-.17,1.26-.34,1.87-.52,3.49-1.07,6.66-2.6,8.8-5.71.61-.89,2.79-1.21,4.32-1.46,8.75-1.46,17.53-2.82,26.3-4.21,1.09-3.52,3.55-4,7.71-3.2,7.65,1.46,15.51,2.13,23.22,3.42,3.29.54,7.39,1.06,9.41,2.88,5.55,5,12.4,3.88,19.07,3.84,1.33,0,2.55-1.59,4-2.17,1.83-.75,3.83-1.21,5.75-1.79.33-2.31-.56-3.47-2.56-3.85a10.59,10.59,0,0,0-2.35-.14c-6.36.22-12.89,1-19.05.09-10.63-1.5-21.08-4-31.51-6.29a12.79,12.79,0,0,1-5.52-3.47c-6.21-5.93-12.9-8.45-18.7-5.12s-12.1,3.29-18.44,3.72c-1.42.1-2.91-.61-4.37-.95.5-1.33.68-2.82,1.55-4a57.46,57.46,0,0,1,4.84-5.06l-1.18-1c-7.9,7.1-17,12.4-30.13,14.2l11.84-9.19-1.29-1.69c-8.38,6-21.08,2.84-28.78,10.41-.69.68-2.19.76-3.13,1.33-2.2,1.33-5.06,2.43-6.29,4.26-3.05,4.52-6.53,5.15-10.7,1.3-1.19-1.09-2.6-3.26-3.5-3.12-5.07.78-10.45,1.44-14.87,3.43-5.38,2.43-9.92,6.13-14.8,9.3-5.78,3.74-10.87,7.86-11.74,14.36-.4,3,.55,5,4.84,4.48.14-1.12.28-2.24.49-4,6.19,3.82,8.32.86,9.37-3.33.69,0,1.07-.08,1.44-.07,4.53.05,7.84,2.17,11.36,4.19.77.44,3.14-.83,4.66-1.48s2.63-1.42,5-2.7l2,7.2,4.1-2c3.26,1,5.69,1.6,8,2.41a14.24,14.24,0,0,1,2.16,1.44c2.64,1.51,5.34,2.94,8,4.47a12.62,12.62,0,0,1,3.51,2.48,69.26,69.26,0,0,1,4.06,6.53c1.35,3.73,3.12,8.6,4.9,13.47l-1.51.39,6.58,3.87-4,2.79,5.59,3.11c-7.16,4.08-11.14,9.5-10.42,17l-1.84-.7c-.23-.61-.46-1.22-.59-1.55l-12,9.49c-4.09,3.71-5.71-2.58-9.18-1.48-4.36,5.62-4.26,9.3,2.31,15.85,3.46,3.45,1.46,5.59-1.55,6.7-5,1.85-10.53,2.69-15.84,4,4.84,2.26,9.73,4.45,14.5,6.81C154.58,177.35,156.68,178.39,157.78,179.84Z"/><path class="cls-23" d="M66.13,264.72c-.52-2.42,2-5.3,4-7.87,2,6.88,3.82,13.37,10.69,19.7,1.87-5,3.18-8.93,4.81-12.74.62-1.44,2-2.65,3-4,1.34.86,2.78,1.63,4,2.58,2.75,2.12,5.2,4.52,8.12,6.47,6.93,4.64,11.21,3.4,13-4.55,3.67,5.11,6.9,9.59,10.13,14.06l2.37-.48c-.57-3.78-1.15-7.56-1.77-11.66l6.47-1.81c-7.9-3.94-9.47-9.59-8.89-16.35l4.1-.52c-1.18-1.12-2.44-2.2-3.59-3.34-.39-.38-.76-.77-1.12-1.17-2.43-2.7-1-5.78,3-6.33a14.78,14.78,0,0,1,5.33.4c6.56,1.64,13,3,20,1.61,3.59-.72,7.66.34,11.41-.06,5-.52,10.35-.86,14.6-2.74,8.18-3.62,9.14-3.67,12.09,3.69,1.33,3.31,3.77,5,7.54,2.34,7.93-5.56,15.9-11.11,23.3-17.13a12.61,12.61,0,0,0,4.06-8c.08-.67.14-1.35.18-2,.09-1.33.13-2.67.13-4v0c0-3.38-.17-6.78-.19-10.16h0l-23.22-2.46a36.18,36.18,0,0,1,6.94-2.51c6.82-1.7,13.35-1.18,19.94-.16h0q0-5,.07-10c-.23,1.2-.46,2.4-.6,3.17-10-.41-19.25-1-28.53-1-2.52,0-6.22,1.3-7.23,2.92s-.46,5,1,6.75c1.74,2.16,4.92,3.64,7.75,5,4.1,2,8.63,3.5,12.65,5.63,3.55,1.88,4.31,4.35.15,6.67-1.16.65-2.13,1.51-3.23,2.24-7.91,5.25-13.7,5.25-20-.64-3.13-2.93-5.41-1.39-7.65.2-4.3,3.05-7.1,1.68-9.78-1.62-2-2.48-4.27-4.82-6.52-7.16-3.65-3.77-7.86-4-11.92-.42-1.49,1.29-2.27,3.17-3.82,4.38a68.6,68.6,0,0,1-9.15,6.09c-.54.29-3.29-.95-3.64-1.84-1.56-4,1.94-8.78,7-9.25,4.52-.42,6.59-1.88,6.14-5.71-.35-3,1.44-3.77,4.86-2.95,2.91.71,5.95,1,9.45,1.61-.21-1.64-.22-2.29-.37-2.93-1.69-7.12-.47-8.79,7.85-10.18,4-.67,4.17-2.93,3.1-5.28s-2.89-4.61-4.45-7a54.18,54.18,0,0,1-4.15,6c-2.87,3.22-5.17,2.86-7.71-.48-1.1-1.45-3.2-2.49-5.06-3.41-4.77-2.36-9.66-4.55-14.5-6.81l-3.57-.05c-3.13,5.77-5.57,6.28-11.76,3-2.69-1.43-5.92-2.17-8.9-3.22l-1.4,1.68,8.59,7.54c-.85.38-2.71,1.26-4.64,2-1.43.56-3.14.74-4.42,1.46-6.38,3.61-7.13,3.59-11,.23-4.6-.48-7.72-.56-10.68-1.16-3.76-.77-4.18,1.09-4.21,3.23-.07,7.22,3,13.7,7.21,19.86a4.06,4.06,0,0,0,3,1.27c3.6-.21,4.41,1.58,6.34,3.77,7.17,8.12-.21,15.28-1.31,22.79-.09.56-4.79,1.53-6.56.88-5-1.82-9.48-4.42-14.21-6.67a4.38,4.38,0,0,0-2.22-.59c-5.27.79-5.4-2.5-6.79-5.25-.79-1.55-3.19-2.55-4.87-3.8h0c-.17.43-.3,1-.44,1.49,0,.16-.1.32-.16.46-.14.34-.3.59-.54.65-5.56,1.25-11.18,2.84-16.85,3.06-2.17.08-4.52-3.14-8.08-5.82L35,227.21c-1.27-2.53-2.51-4.91-3.66-7.31-3.83-8-6.11-15.92-2.8-24.63,1.06-2.75-.84-6.28-1.39-9.45l-1.8.19c2-5.12,10-10.16.38-15.44l-4.87,1h0c0,1-.07,2-.1,2.93-1.12,10.1-2.8,20.19-3.19,30.3-.37,9.24.7,18.5,1,27.76.1,2.58-.13,5.18-.22,7.76h0c1.19.86,2.75,1.59,3.79,2.51a3.73,3.73,0,0,1,.84,1c1.67,3,3.34,3.23,6.34,1.25,5.51-3.63,9-3.06,12.66,1.72,5.83,7.6,11.72,15.18,17.58,22.77C63.53,269.63,67.31,270.15,66.13,264.72Z"/><path class="cls-22" d="M71.67,220.41c1.39,2.75,1.52,6,6.79,5.25a4.38,4.38,0,0,1,2.22.59c4.73,2.25,9.26,4.85,14.21,6.67,1.77.65,6.47-.32,6.56-.88,1.1-7.51,8.48-14.67,1.31-22.79-1.93-2.19-2.74-4-6.34-3.77a4.06,4.06,0,0,1-3-1.27c-4.21-6.16-7.28-12.64-7.21-19.86,0-2.14.45-4,4.21-3.23,3,.6,6.08.68,10.68,1.16,3.85,3.36,4.6,3.38,11-.23,1.28-.72,3-.9,4.42-1.46,1.93-.76,3.79-1.64,4.64-2L112.59,171l1.4-1.68c3,1.05,6.21,1.79,8.9,3.22,6.19,3.28,8.63,2.77,11.76-3-4.16-2.51-7.93-6.06-12.59-7.25s-10.07-.1-15.11.38c-.71.07-1.07,2.39-1.66,3.64-.74,1.59-1,3.84-2.45,4.59-3.35,1.78-8.53,4.75-10.68,3.78-4.86-2.19-1.51-6.47-.13-9.81,1.08-2.59,1.76-5.23-2.16-6.1-1.89-.42-4.32.8-7.5,1.5-5.49-3-7.54-2.74-12.51,2.19a16,16,0,0,1-4,2.24c-1.51.76-4.37,1.43-4.39,2.17-.16,5.89-3.42,8.13-10.54,8.07-4.1,0-6.29,2.1-3,5.67a76.34,76.34,0,0,1,4.82,6.62l-16.55,3.2c4.14,3.57,7.64,8.77,10.31,8.49,8-.83,8.43-7.2,8.55-13.65,6.83,2.33,12.6,7.08,20.25,2.88-3.37,3.68-2.33,9.76-10.52,9.57-3.92-.09-3.31,2.71-1.52,4.22,4.19,3.52,4.49,7.3,2.32,11.55l1.23,3.09h0C68.48,217.86,70.88,218.86,71.67,220.41Z"/><path class="cls-24" d="M219.4,16.66l1.26,4.2,3.62-.5,6.08-.72,3.59-.36,2.85-.45-2.85.45,2.85-.45,1.76-.13,5.76.08,3.33,1.13c.8,2.82,1.41,5.75,5.6,6.59l2.52-.21,5.91,0-5.91,0,5.91,0,2.51.26,3.6,1h0a10,10,0,0,0,3.9,2.76l.34.1a7.23,7.23,0,0,0,2.11.35,5.81,5.81,0,0,0,.83,0,8,8,0,0,0,.84-.11,10,10,0,0,0,1.7-.47,17.2,17.2,0,0,0,3.5-1.81,10.56,10.56,0,0,1,4.16-2c2.45-.3,6.26-.89,7.32.15,5.59,5.49,15.1,7.69,18.16,15.33,1.68,4.18,4,4.36,8,1.26,2.55-2,4.93-4.13,8.28-7,.88,5.1,1.39,9.18,2.39,13.18.32,1.3,1.91,2.38,2.91,3.56,4.11-.14,8.25-.59,12.33-.34s6.68-.12,6.56-4.25c0-1.17,1.37-3.23,2.37-3.34a8.24,8.24,0,0,1,5.28,1.46c2.25,1.77,3.91,4.06,5.82,6.13l4.57,1.22L373,50.84l-.18-.22-.94-.9-2-2.22a1.44,1.44,0,0,1-.49-.67l-.16-.21-.84-1.17c1-.55,2-1.1,3-1.66l1.67.55a2.16,2.16,0,0,0,1,.32l1.39.67c1.49,1,2.9,2.13,4.42,3.12.51.32,1,.64,1.57.93,6.69,3.6,13.24,7.71,22.06,6.14l-3.92-5.82L395.73,47h0l.08,0c-9.67-4.52-19.28-9.12-29-13.51-4.7-2.12-9.66-3.84-14.5-5.73l-46.94-11-54-3.79L248,13.1l-2.12.11h0Z"/><path class="cls-19" d="M311.72,60.33c-1.44.58-2.66,2.16-4,2.17-6.67,0-13.52,1.17-19.07-3.84-2-1.82-6.12-2.34-9.41-2.88-7.71-1.29-15.57-2-23.22-3.42-4.16-.79-6.62-.32-7.71,3.2,3.65,1.67,7.34,3.29,10.93,5,5.31,2.6,10.56,5.29,15.83,7.94h2.41l2.37,1c3.06.74,6.1,1.71,9.16,2.44a37.64,37.64,0,0,0,5.56,1c18.11,1.72,36.29,3,54.44,4.45-1.5-1.57-2.67-3.49-4.54-4.63-6.83-4.17-13.9-8.08-20.87-12.09l-3.9-1.41-2.24-.8C315.55,59.12,313.55,59.58,311.72,60.33Z"/><path class="cls-25" d="M175,136.65l1.84.7c-.72-7.48,3.26-12.9,10.42-17l-5.59-3.11,4-2.79-6.58-3.87,1.51-.39c-1.78-4.87-3.55-9.74-4.9-13.47a69.26,69.26,0,0,0-4.06-6.53,12.62,12.62,0,0,0-3.51-2.48c-2.62-1.53-5.32-3-8-4.47A14.24,14.24,0,0,0,158,81.82c-2.34-.81-4.77-1.45-8-2.41l-4.1,2-2-7.2c-2.33,1.28-3.57,2.11-5,2.7s-3.89,1.92-4.66,1.48c-3.52-2-6.83-4.14-11.36-4.19-.37,0-.75,0-1.44.07-1,4.19-3.18,7.15-9.37,3.33-.21,1.71-.35,2.83-.49,4,.75,3.26,3,3.13,6.26,2.34,3.87-.91,9-2.6,11.8-1.3a51.89,51.89,0,0,0,23.22,5c1.17,0,2.79-.13,3.47.43,4,3.29,8.55,6.39,11.52,10.29,3.09,4.06,4.62,8.94,6.88,13.56l-5.67,2.73,5.84,3.32c-8.21,7.72-9.18,17.53-12.47,26.65l12-9.49C174.56,135.43,174.79,136,175,136.65Z"/><path class="cls-16" d="M344.48,72.84c1.87,1.14,3,3.06,4.54,4.63l42.22,0c-2.59-2-5.16-4-7.77-5.9-1.38-1-2.82-2-4.24-3L378,67.69c-7.3-.73-14.62-1.42-21.92-2.22q-7.41-.81-14.78-1.89c-5.9-.87-11.77-1.88-17.65-2.83C330.58,64.76,337.65,68.67,344.48,72.84Z"/><path class="cls-16" d="M409.42,65.6c-2.31,2.83-2.24,5.81-1.7,8.81.18,1,.42,2,.63,3,4.15-.26,8.37-.26,12.49-.65,1.37-.13,2.73-.3,4.07-.55,2.71-.49,4.9-2.94,7.33-4.51l-7-4.15-3.65-1-8.41-2-1.54-.2a5.16,5.16,0,0,0-1,.14l-1.22,1.08Z"/><path class="cls-6" d="M366.78,33.44c9.75,4.39,19.36,9,29,13.51-1.16-1.27-2-3-3.54-3.74-10.18-4.78-20.42-9.47-30.85-13.87a10.63,10.63,0,0,0-1-.38c-2.48-.76-5.42-.81-8.1-1.25C357.12,29.6,362.08,31.32,366.78,33.44Z"/><path class="cls-6" d="M358.76,46.44A8.24,8.24,0,0,0,353.48,45c-1,.11-2.4,2.17-2.37,3.34.12,4.13-2.46,4.5-6.56,4.25s-8.22.2-12.33.34c3.32.31,6.64.56,9.94.93,9.42,1,9.41,1.07,10.81-6.21.06-.27.47-.49.8-.82l10.81,5.76C362.67,50.5,361,48.21,358.76,46.44Z"/><path class="cls-6" d="M251.31,12.93l54,3.79c-.46-.31-.86-.8-1.38-.91q-3.25-.68-6.52-1.2c-1.08-.17-2.17-.34-3.26-.49C280,12.18,265.69,12.24,251.31,12.93Z"/><path class="cls-19" d="M379.23,68.6l30.19-3h0l1.22-1.08L378,67.69Z"/><path class="cls-26" d="M220.66,20.86l-1.26-4.2-2.47-.07-9.38,3.64c.19.67.37,1.34.55,2Z"/><path class="cls-6" d="M219.4,16.66l26.43-3.45h0a66.26,66.26,0,0,0-17.51-.06l-1.31.21c-1.23.23-2.46.51-3.68.84a38,38,0,0,0-6.39,2.39Z"/><path class="cls-26" d="M247.65,19.91l-5.77,8,5.89-.73,5.48-.69C249.06,25.66,248.45,22.73,247.65,19.91Z"/><path class="cls-19" d="M413.16,64.58l6-1,.32-.32-5.14-5.18-.42,1-2.28,5.3Z"/><path class="cls-26" d="M369.15,53.79l8,2.19a24.62,24.62,0,0,0-2-3.52,3.94,3.94,0,0,0-.47-.44c-.51-.42-1.13-.78-1.67-1.18Z"/><path class="cls-6" d="M403.6,55.52a7.67,7.67,0,0,0,1.77-2.81c.37-1.61-1.36-2.37-5.72-3h0l0,0h0Z"/><path class="cls-14" d="M399.68,49.7h0"/><path class="cls-14" d="M395.73,47h0"/><path class="cls-14" d="M399.68,49.7,395.73,47"/><path class="cls-19" d="M421.51,64.63c0,.65,0,1.3.05,2l3.65,1q-1.77-1.54-3.55-3.08h0Z"/><path class="cls-27" d="M267.79,27.57h0"/><path class="cls-27" d="M264.19,26.53l3.6,1"/><path class="cls-27" d="M255.77,26.29l5.91,0"/><path class="cls-27" d="M230.36,19.64l-6.08.72"/><path class="cls-27" d="M238.56,18.7l5.76.08"/><path class="cls-19" d="M421.51,64.63l.15-.14h0l-2.21-1.2-.32.32Z"/><path class="cls-27" d="M236.8,18.83l-2.85.45"/><path class="cls-26" d="M369.92,47.5v-.45l-.5-.22A1.44,1.44,0,0,0,369.92,47.5Z"/><path class="cls-27" d="M368.43,45.45l.84,1.17"/><path class="cls-27" d="M371.45,43.79l1.67.55"/><path class="cls-27" d="M371.9,49.72l.94.9"/><path class="cls-27" d="M374.16,44.66l1.39.67"/><path class="cls-15" d="M408.35,77.43c-.21-1-.45-2-.63-3-.54-3-.61-6,1.7-8.81h0l-30.19,3c1.42,1,2.86,2,4.24,3,2.61,1.94,5.18,3.93,7.77,5.9h0Z"/><path class="cls-28" d="M395,85.62c-2.81,1.25-5.55,2.65-8.47,3.7a58.4,58.4,0,0,1-6.73,1.59c.13.58.27,1.16.4,1.74l17.29-1.26L395,85.62Z"/><path class="cls-29" d="M277.49,68.56l2.37,1"/><path class="cls-3" d="M235.34,89.77c-9.57-2.1-18.33-5.11-26.05-10.5-3-2.09-7.74-2.5-11.69-3.67-3.74,3.8-6.1,5.21-10,4.88A32.2,32.2,0,0,1,181.18,79a5.39,5.39,0,0,0-3.87.33,2.66,2.66,0,0,0-.42,3c2.28,3.18,4.27,6.83,7.58,9.08,4.35,3,9.85,4.74,14.67,7,7.54-6,9.75-5.41,12.62,2.76a18.38,18.38,0,0,0,1.47,3.75c4.59,7.27,10.54,7.59,16.87,1a22.86,22.86,0,0,1,2.64-2.05l1.55,1.17c-2.5,2.28-4.89,4.65-7.52,6.82-3.84,3.17-3.47,7.58.73,10.26,5.59,3.58,9.39,7.73,9.06,14.29-.23,4.64,1.8,9.35,2.61,14.06.26,1.51.56,3.84-.41,4.47-1.21.78-4.43.85-5.54.05-2.72-2-4.67-4.63-7-6.95a14.42,14.42,0,0,0-4.07-3.21c-.67-.29-3.33,1-3.28,1.34.55,4.12-.17,9.37,2.62,12.07,6.23,6,7.55,12.12,5.17,19.31,3.86,1.44,9.09,2.05,11.25,4.51,3.22,3.66,6.22,4.3,11.1,3.64,6.82-.94,10.84-4.29,14.23-8.92a72.68,72.68,0,0,1,10.92-12.41c2-1.68,6.05-1.68,9.18-2.45.24,2.65,1.09,5.38.57,7.92-.63,3.12-2.41,6.08-3.69,9.1,2.45.29,4,0,5-.79,3.9-3.26,7.22-7.07,11.52-9.89,2.83-1.85,7-2.35,10.51-3.45.24,2.07.33,4.17.77,6.21.52,2.44.37,6.11,2.18,7a16.07,16.07,0,0,0,9.42,1.15c5.71-.8,11.47-3.75,13.69-7.58.51-2.32.94-4.66,1.36-7s.81-4.7,1.27-7a61.85,61.85,0,0,1,4-13.61c3.31-7.42-.09-12.55-3.79-18.08-1.24-1.86-5-4.33-6.55-3.89-2.47.72-3.95,3.65-6,5.53-1.85,1.69-3.57,3.92-5.93,4.68-4.14,1.33-12.3-3.32-13.67-7.17l10.27-1.3c-1.06-1.2-1.22-1.56-1.53-1.69a4.36,4.36,0,0,0-1.7-.4c-5.78.08-11-.8-15.29-4.51-.9-.78-3.18-.58-4.84-.66-5.68-.3-11.81.46-16.9-1.11-3.57-1.1-7.69-5.15-8.08-8.19-.7-5.38-4.17-4.84-8.18-4.43-1.94.2-3.74,1.41-5.67,1.56s-5.21-.36-5.28-.85A9.93,9.93,0,0,1,247.81,98a11.79,11.79,0,0,1,2.69-3q.23-.21.42-.42C245.74,93,240.68,90.93,235.34,89.77Z"/><path class="cls-9" d="M409.47,129.57h6l15.75-3h3.64c5.45-.91,11.83,0,16.32-6l-6.35.55-17.24,1.5c-4.26.53-8.52,1.47-12.79,1.5-9.05.07-18.12-.34-27.18-.55H372.58l-.36,2.34,20.3,3.64Z"/><path class="cls-19" d="M415.5,129.57c3.95,1.43,6.69,2.28,8.74,2.44a6.85,6.85,0,0,0,1.84-.08,4.42,4.42,0,0,0,1.5-.55,6.57,6.57,0,0,0,1.88-1.79,21.37,21.37,0,0,0,1.79-3Z"/><path class="cls-19" d="M409.47,129.57h0l-17,0,1.2,1Z"/><path class="cls-9" d="M198.84,70.39c-1.3,1.31-1.57,3.12-1.24,5.21,4,1.17,8.69,1.58,11.69,3.67,7.72,5.39,16.48,8.4,26.05,10.5,5.34,1.16,10.4,3.21,15.58,4.85L273,97c.24-.79.47-1.58.7-2.37-3.14-1-6.23-2.16-9.43-3.06-9.68-2.72-19.41-5.34-29.12-8-7.36-2.39-15-4.36-22-7.33-3.06-1.3-5.55-3.5-8.1-5.62-.85-.7-1.7-1.4-2.58-2.06h0A7.34,7.34,0,0,0,198.84,70.39Z"/><path class="cls-15" d="M421.51,64.63l-2.38-1-6,1,8.41,2C421.55,65.93,421.53,65.28,421.51,64.63Z"/></g></svg>