<svg id="Capa_1" data-name="Capa 1" xmlns="http://www.w3.org/2000/svg" viewBox="0 0 886.31 294.48"><defs><style>.cls-1{fill:#e94e1b;}</style></defs><path d="M338.69,97.78l17.65-34.63,70.4,138.16,15.38,30H408.48l-15.38-30m-45.41-57.38-34.55,67.75-8.53,19.63-34.84,0,60.7-119.67"/><path d="M523.48,154h-30v77.37h-30V63.14h106.2a45,45,0,0,1,32,13.22,46,46,0,0,1,13.22,32.2,45.56,45.56,0,0,1-26.44,41.33,40.12,40.12,0,0,1-13,3.6m1.08,12.64L600.2,211l10.68,20.33H577.24L566.56,211l-16.1-29.82-7.7-14.64m26.85-42.62a14,14,0,0,0,6.25-1.44A15.25,15.25,0,0,0,585,108.56a15.85,15.85,0,0,0-4.57-11.06,15.13,15.13,0,0,0-10.81-4.32H493.44v31Z"/><path d="M774.2,105.62l-73.65,95.44H808v30l-130.23.24h-38l.24-.24,96.72-125.48m9.73-12.44H639.52v-30H807.24l-23.31,30"/><path d="M80.28,102.23V63.14l30,23.07,54.07,41.57,54.06-41.57,30-23.07v168.2h-30V124.17l-29.55,22.59-24.51,19-24.51-19-29.56-22.59m-1.93,54.34v52.83h-30V158.15"/><circle class="cls-1" cx="96.42" cy="142.1" r="16.05"/></svg>